<svg width="44" height="44" viewBox="0 0 44 44" fill="none" xmlns="http://www.w3.org/2000/svg">
<path d="M0 21.8601C0 9.7871 9.7871 0 21.8601 0C33.933 0 43.7201 9.7871 43.7201 21.8601C43.7201 33.933 33.933 43.7201 21.8601 43.7201C9.7871 43.7201 0 33.933 0 21.8601Z" fill="#0161FE"/>
<path d="M14 28C14 26.9391 14.4214 25.9217 15.1716 25.1716C15.9217 24.4214 16.9391 24 18 24H26C27.0609 24 28.0783 24.4214 28.8284 25.1716C29.5786 25.9217 30 26.9391 30 28C30 28.5304 29.7893 29.0391 29.4142 29.4142C29.0391 29.7893 28.5304 30 28 30H16C15.4696 30 14.9609 29.7893 14.5858 29.4142C14.2107 29.0391 14 28.5304 14 28Z" stroke="white" stroke-width="2" stroke-linejoin="round"/>
<path d="M22 20C23.6569 20 25 18.6569 25 17C25 15.3431 23.6569 14 22 14C20.3431 14 19 15.3431 19 17C19 18.6569 20.3431 20 22 20Z" stroke="white" stroke-width="2"/>
</svg>
